<?xml version="1.0" encoding="utf-8"?>
<!-- Generator: Adobe Illustrator 15.0.0, SVG Export Plug-In  -->
<!DOCTYPE svg PUBLIC "-//W3C//DTD SVG 1.1//EN" "http://www.w3.org/Graphics/SVG/1.1/DTD/svg11.dtd" [
	<!ENTITY ns_flows "http://ns.adobe.com/Flows/1.0/">
]>
<svg version="1.1"
	 xmlns="http://www.w3.org/2000/svg" xmlns:xlink="http://www.w3.org/1999/xlink" xmlns:a="http://ns.adobe.com/AdobeSVGViewerExtensions/3.0/"
	 x="0px" y="0px" width="358px" height="357px" viewBox="-0.977 -0.511 358 357"
	 overflow="visible" enable-background="new -0.977 -0.511 358 357" xml:space="preserve">
<defs>
</defs>
<circle fill="#FFD500" cx="178.023" cy="178.024" r="178.023"/>
<circle fill="#22366B" cx="177.971" cy="178.024" r="145.31"/>
<path fill-rule="evenodd" clip-rule="evenodd" fill="#EDEDED" d="M165.059,214.068c0.813-0.082,0.176-0.007,0.813-0.082
	c0.176-7.918-0.108-16.269,2.428-22.45c3.003-7.327,9.714-11.867,16.676-15.367c7.255-3.647,15.558-6.042,23.144-8.902
	c16.181-6.097,30.363-12.932,32.771-30.599c-9.307-0.781-18.21-1.232-27.523-2.005c-0.099,5.627,0.081,11.681-0.282,17.238
	c-0.669-0.312-0.375-1.281-0.375-1.874c0-4.778-0.07-10.399,0.094-15.084c-0.052-0.554-0.028-0.18-0.059-0.71
	c0.059-1.23,0.013-0.206,0.059-0.602c-0.001-15.055,0.091-30.015,0.188-44.972c10.557,0.009,21.213-1.382,31.949-1.125
	c10.732,0.258,21.521,0.498,32.324,0.75c-0.015,9.745-0.656,19.71-0.656,29.701c0,1.437-0.34,3.118-0.093,4.216
	c0.242,1.086,1.863,2.843,2.529,3.841c2.575,3.861,4.986,7.656,7.494,11.337c-0.137,4.89-0.246,9.809-0.373,14.71
	c-0.111,0.392,0.142,0.419,0.468,0.375c-0.823,0.393-0.336,2.098-0.468,3.184c-3.65,0.183-7.444,0.932-11.15,0.469
	c0.058-1.036-0.119-2.306,0.093-3.186c-0.432-0.253-1.195-0.179-1.778-0.281c-0.373,0.378,0.296,1.794-0.375,1.874
	c-0.613,0.105-0.358-0.741-0.376-1.031c-0.077-1.312,0.195-2.798,0.094-4.123c-0.536-0.211-1.393-0.107-1.968-0.281
	c-0.216-1.125,0.418-2.681-0.187-3.28c-0.427,2.525-0.227,5.799-0.375,8.714c-0.012,0.22,0.226,0.916-0.281,0.937
	c-0.751-0.17-0.311-1.424-0.28-2.06c0.113-2.38-0.03-5.133,0.093-7.496c-0.103-0.396-1.039,0.04-1.123-0.375
	c0.144-0.886,0.082-1.978,0.093-2.998c-0.556-0.256-1.47-0.154-2.155-0.281c0.04-1.023-0.092-2.217,0.094-3.093
	c-0.327-0.358-1.284-0.089-1.78-0.28c-0.124,4.677-0.229,9.691-0.28,14.616c-0.006,0.515,0.237,1.378-0.376,1.687
	c-0.507-0.032-0.269-0.703-0.28-0.937c-0.264-5.577,0.655-12.143,0.094-17.521c-0.381,0.003-0.183,0.593-0.188,0.749
	c-0.165,4.458-0.28,9.593-0.28,14.241c0,0.586,0.237,1.433-0.28,1.875c-0.763-0.327-0.308-1.299-0.282-1.875
	c0.235-4.954-0.041-10.542,0.282-15.458c-1.023-0.11-2.491,0.126-3.747,0.094c-0.564,0.188-0.288-0.464-0.657-0.468
	c-1.23,0.08-2.516,0.106-3.747,0.187c-0.274,5.593,0.188,11.664-0.281,17.24c-0.017,0.198,0.218,0.853-0.282,0.843
	c-0.512-0.288-0.279-1.332-0.279-2.061c0-5.179,0.196-10.851,0.279-16.022c-2.691,0.149-5.405,0.278-8.15,0.375
	c-0.152,4.306,0.146,9.177-0.375,13.304c-0.667-0.085-0.384-1.054-0.375-1.405c0.104-3.574,0.161-8.101,0.188-11.806
	c-0.749-0.06-2.128,0.059-3.093,0.094c-0.848,3.967-0.436,9.287-0.656,13.96c-0.038,0.81,0,1.635,0,2.436
	c0,0.651,0.238,1.542-0.279,2.062c-0.658-0.155-0.381-1.057-0.376-1.5c0.038-3.783,0.185-8.54,0.188-12.46
	c-5.442,16.534-21.412,22.938-38.227,28.856c-8.094,2.849-16.742,5.638-23.517,10.025c-7.021,4.546-11.88,10.278-12.462,20.987
	c-0.148,2.748,0.608,5.009,0.938,7.495c0.214,1.612,0.412,3.267,0.655,4.967c12.391,3.63,24.784,7.259,37.291,10.773
	c0.043,13.599-0.167,26.943-0.094,40.569c5.304,2.314,10.932,4.308,16.396,6.464c-28.072,6.34-56.615,12.984-84.98,19.302
	c-0.957,0.213-2.131,0.604-2.715,0.562c-0.716-0.051-2.138-1.063-3.093-1.593c-15.021-8.34-30.23-16.474-45.16-24.735
	c8.426-1.692,17.127-3.109,25.578-4.778c-0.147-5.514-0.31-11.992-0.469-17.708c-0.049-1.779-0.149-3.586-0.094-5.248
	c0.02-0.539,0.014-0.344,0.003-0.953c-0.036-1.148-0.047-2.21-0.096-3.636c-0.07-2.012-0.022-4.17-0.375-5.435
	c5.953-0.469,12.591-1.825,18.928-2.529c0.284-1.791-0.119-3.689,0-5.622c11.566-1.582,23.106-3.19,34.665-4.778L165.059,214.068z
	 M276.327,131.665c0.813,1.124,1.468,2.406,2.342,3.467c0.092-2.594,0.155-5.218,0.188-7.871c-0.786-1.149-1.523-2.347-2.341-3.466
	C276.401,126.367,276.367,129.02,276.327,131.665z M279.42,132.321c-0.033,1.334-0.333,2.781-0.094,3.841
	c0.161,0.721,1.052,1.626,1.593,2.437c1.456,2.185,2.734,4.088,4.028,6.09c0.238,0.37,0.412,1.18,0.749,0.937
	c0.073-2.223,0.011-4.282,0.094-6.184c0.021-0.478,0.195-1.006,0.095-1.499c-0.118-0.577-0.996-1.684-1.5-2.437
	c-1.618-2.417-3.57-5.225-4.872-7.214C279.394,129.598,279.452,130.931,279.42,132.321z M276.046,134.288
	c0.14,0.142,0.534,0.029,0.47,0.375c0.13,0.475-0.43,0.257-0.376,0.655c0.619,0.786,1.11,1.7,1.687,2.53
	c-0.157,0.25-0.195,1.028,0.188,1.031c-0.81,0.345-0.171,2.14-0.375,3.092c0.387-0.074,0.481,0.144,0.844,0.094
	c0.184-1.69,0.056-3.694,0.187-5.435c-0.89-1.078-1.446-2.488-2.436-3.467C276.19,133.559,276.365,134.17,276.046,134.288z
	 M276.046,138.692c0.344,0,0.687,0,1.031,0c0.022-0.959-0.606-1.269-0.938-1.874C276.07,137.404,276.013,138.002,276.046,138.692z
	 M279.139,142.065c0.166,0.238,0.874-0.063,1.03,0.188c-0.973,0.214-0.242,2.131-0.469,3.092c0.794,0.206,1.975,0.024,2.624,0.374
	c-0.156,0-0.312,0-0.468,0c0,1.031,0,2.061,0,3.092c0.906,0.062,1.846,0.09,2.622,0.281c-0.064,0.186-0.558-0.058-0.469,0.281
	c0,0.969,0,1.937,0,2.905c0.603-0.069,0.953,0.109,1.5,0.094c-0.026-1.775,0.165-3.333,0.093-5.152
	c-2.192-3.085-4.069-6.487-6.371-9.464C279.207,139.199,279.303,140.761,279.139,142.065z M123.327,226.201
	c-0.067,1.849,0.153,3.407,0.094,5.248c1.866,0.59,3.575,1.768,5.622,1.873c-0.093-1.594-0.113-3.259-0.093-4.967
	c-0.411-0.119-1.04-0.022-0.936-0.655c0.425-0.512,1.613-0.261,2.248-0.562c-0.033-0.622-0.146-1.165-0.094-1.874
	C127.81,225.5,125.64,225.921,123.327,226.201z M122.578,226.295c-2.933,0.535-6.119,0.814-8.996,1.405
	c3.085,1.132,6.044,2.389,9.183,3.465C122.714,229.531,122.904,227.654,122.578,226.295z M112.178,235.853
	c1.897-0.197,3.697-0.488,5.434-0.843c-0.134-1.522-0.089-3.225-0.093-4.873c-1.747-0.815-3.612-1.511-5.529-2.156
	C112.094,230.562,112.165,233.179,112.178,235.853z M129.792,233.229c0.018-0.139,0.227-0.087,0.374-0.094
	c0.463-1.138-0.097-2.825,0.094-4.31c-0.29,0.009-0.448-0.114-0.655-0.188C129.724,230.113,129.362,232.065,129.792,233.229z
	 M118.268,234.914c1.619-0.129,3.027-0.47,4.591-0.655c0-0.718,0-1.438,0-2.155c-1.637-0.55-3.11-1.264-4.779-1.781
	C118.343,231.653,118.001,233.589,118.268,234.914z M123.515,234.165c0.563-0.092,0.158-1.154,0.281-1.686
	c-0.177,0.02-0.207-0.105-0.375-0.094C123.348,233.083,123.553,233.502,123.515,234.165z M124.451,233.978
	c0.775-0.1,1.581-0.168,2.249-0.374c-0.772-0.26-1.463-0.598-2.249-0.845C124.451,233.166,124.451,233.572,124.451,233.978z
	 M124.545,234.726c-0.067,2.226,0.101,4.211,0.095,6.373c1.317,0.749,2.921-0.024,4.496-0.094c0-1.25,0-2.499,0-3.749
	c-0.314-0.215-1.029-0.031-0.937-0.654c-0.016-0.422,0.559-0.255,0.843-0.374c0-0.563,0-1.126,0-1.688
	C127.862,233.784,126.114,234.735,124.545,234.726z M129.699,236.132c0.295,0.048,0.331-0.167,0.656-0.092c0-0.345,0-0.688,0-1.03
	c-0.295,0.015-0.313-0.251-0.656-0.188C129.699,235.258,129.699,235.695,129.699,236.132z M123.795,240.725
	c0.356-1.076,0.094-2.855,0.094-4.218c0-0.51,0.237-1.372-0.281-1.593C123.447,236.7,123.493,239.089,123.795,240.725z
	 M122.765,235.01c-1.44,0.307-3.04,0.456-4.497,0.749c0,0.874,0,1.748,0,2.623c1.518,0.698,3.141,1.292,4.684,1.968
	C122.901,238.558,123.093,236.523,122.765,235.01z M113.677,236.507c1.296,0.547,2.579,1.106,3.935,1.592
	c-0.116-0.693,0.237-1.86-0.188-2.246C116.229,236.124,114.82,236.184,113.677,236.507z M112.365,243.629
	c1.877-0.216,3.619-0.567,5.434-0.843c-0.183-1.101-0.057-2.505-0.094-3.749c-1.807-0.752-3.612-1.511-5.434-2.248
	C112.2,239.172,112.416,241.268,112.365,243.629z M129.979,240.816c0.966-0.188,0.246-2.064,0.469-2.997
	c-0.265-0.079-0.385-0.304-0.75-0.281C129.918,238.504,129.564,240.046,129.979,240.816z M118.361,242.691
	c1.512-0.364,3.4-0.35,4.685-0.938c-0.141-0.847-1.309-1.098-2.061-1.404c-0.861-0.354-1.936-0.726-2.624-1.032
	C118.361,240.441,118.361,241.567,118.361,242.691z M112.833,259.93c1.776-0.285,3.463-0.658,5.247-0.937
	c0.039-3.973-0.196-7.673-0.186-11.618c-1.863-0.727-3.585-1.599-5.436-2.343C112.536,250.045,112.63,255.045,112.833,259.93z
	 M118.923,258.806c1.518-0.2,2.856-0.578,4.403-0.749c0.069-2.849-0.151-5.408-0.093-8.245c-1.463-0.755-3.06-1.377-4.592-2.062
	C118.761,251.412,118.765,255.187,118.923,258.806z M124.17,257.871c0.244-2.125,0.039-5.408-0.095-7.778c-0.093,0-0.186,0-0.28,0
	C124.034,252.571,123.667,255.655,124.17,257.871z M125.014,257.682c1.54-0.239,3.054-0.506,4.497-0.843
	c-0.165-1.334-0.067-2.93-0.094-4.403c-1.604-0.582-3.04-1.332-4.59-1.968C124.936,252.825,124.863,255.365,125.014,257.682z
	 M130.26,256.745c0.692-0.019,0.3-0.918,0.281-1.406c-0.033-0.837,0.099-1.818-0.093-2.435c-0.227,0.037-0.204-0.171-0.469-0.094
	C130.309,253.886,129.772,255.827,130.26,256.745z"/>
<polygon fill="#EDEDED" points="94.629,85.79 98.44,97.837 111.076,97.74 100.796,105.088 104.793,117.075 94.629,109.57 
	84.464,117.075 88.461,105.088 78.183,97.74 90.818,97.837 "/>
<polygon fill="#EDEDED" points="126.318,64.915 130.13,76.962 142.765,76.864 132.486,84.212 136.483,96.199 126.318,88.694 
	116.154,96.199 120.151,84.212 109.873,76.864 122.506,76.962 "/>
<polygon fill="#EDEDED" points="158.164,85.79 161.975,97.837 174.609,97.74 164.331,105.088 168.327,117.075 158.164,109.57 
	147.999,117.075 151.996,105.088 141.717,97.74 154.352,97.837 "/>
<polygon fill="#EDEDED" points="94.4,123.574 98.212,135.62 110.848,135.522 100.568,142.871 104.566,154.857 94.4,147.351 
	84.236,154.857 88.232,142.871 77.954,135.522 90.589,135.62 "/>
<polygon fill="#EDEDED" points="126.318,145.299 130.13,157.346 142.765,157.248 132.486,164.596 136.483,176.583 126.318,169.078 
	116.154,176.583 120.151,164.596 109.873,157.248 122.506,157.346 "/>
<polygon fill="#EDEDED" points="158.163,123.346 161.975,135.393 174.609,135.295 164.331,142.643 168.327,154.63 158.163,147.124 
	147.999,154.63 151.996,142.643 141.717,135.295 154.352,135.393 "/>
<path fill="#DD0741" d="M53.773,88.851l-4.471,6.481l2.428,3.005l-4.021,5.829L34.025,84.476l4.296-6.226l23.264,5.803l-4.124,5.978
	L53.773,88.851z M48.962,87.28l-8.048-2.543l5.249,6.6L48.962,87.28z"/>
<path fill="#DD0741" d="M46.306,67.809l4.724-5.078l12.387,11.523l7.372-7.925l4.047,3.764L62.738,83.096L46.306,67.809z"/>
<path fill="#DD0741" d="M68.456,60.56c-2.288-2.862-3.271-5.727-2.952-8.597c0.319-2.869,1.902-5.44,4.749-7.715
	c2.918-2.333,5.792-3.346,8.623-3.042c2.831,0.305,5.374,1.868,7.63,4.69c1.639,2.048,2.637,4.005,2.995,5.868
	c0.359,1.863,0.178,3.679-0.542,5.451c-0.721,1.771-2.054,3.435-3.999,4.989c-1.977,1.581-3.864,2.574-5.663,2.979
	c-1.8,0.407-3.646,0.249-5.541-0.47C71.86,63.994,70.094,62.609,68.456,60.56z M73.893,56.253c1.415,1.77,2.76,2.778,4.036,3.027
	c1.275,0.248,2.479-0.082,3.612-0.987c1.163-0.929,1.762-2.029,1.794-3.295c0.032-1.267-0.735-2.882-2.303-4.842
	c-1.319-1.651-2.616-2.591-3.891-2.82c-1.274-0.229-2.481,0.112-3.622,1.023c-1.092,0.873-1.66,1.96-1.703,3.263
	C71.772,52.925,72.465,54.467,73.893,56.253z"/>
<path fill="#DD0741" d="M85.212,33.593l5.663-3.141l13.412,6.761l-6.021-10.859l5.717-3.171l10.885,19.628l-5.717,3.17l-13.327-6.7
	l5.977,10.777l-5.704,3.163L85.212,33.593z"/>
<path fill="#DD0741" d="M110.701,20.269l17.47-6.347l1.636,4.504l-10.936,3.973l1.218,3.353l10.145-3.686l1.563,4.303l-10.145,3.686
	l1.511,4.158l11.253-4.088l1.735,4.778l-17.785,6.461L110.701,20.269z"/>
<path fill="#DD0741" d="M144.316,9.837l20.893-2.817l0.74,5.493l-7.01,0.944l2.259,16.751l-6.873,0.927l-2.259-16.75l-7.009,0.945
	L144.316,9.837z"/>
<path fill="#DD0741" d="M168.79,17.934c0.06-3.663,1.126-6.499,3.2-8.507c2.074-2.007,4.933-2.982,8.576-2.923
	c3.735,0.061,6.597,1.11,8.586,3.148c1.987,2.038,2.952,4.863,2.894,8.476c-0.043,2.623-0.519,4.767-1.429,6.431
	c-0.91,1.665-2.207,2.95-3.891,3.856c-1.685,0.907-3.771,1.341-6.261,1.3c-2.531-0.041-4.619-0.478-6.265-1.311
	c-1.646-0.833-2.969-2.131-3.972-3.893C169.228,22.749,168.747,20.557,168.79,17.934z M175.725,18.077
	c-0.037,2.266,0.356,3.901,1.183,4.904c0.826,1.003,1.964,1.517,3.413,1.541c1.489,0.024,2.65-0.441,3.483-1.398
	c0.832-0.956,1.269-2.69,1.31-5.2c0.034-2.113-0.367-3.663-1.204-4.651c-0.836-0.988-1.983-1.494-3.443-1.518
	c-1.398-0.023-2.528,0.454-3.392,1.43C176.211,14.16,175.761,15.791,175.725,18.077z"/>
<path fill="#DD0741" d="M207.32,23.893l0.846-4.592l10.539,1.94l-1.732,9.411c-2.271,1.004-4.228,1.611-5.87,1.822
	c-1.642,0.211-3.526,0.121-5.654-0.271c-2.62-0.482-4.674-1.322-6.16-2.519c-1.487-1.198-2.521-2.763-3.106-4.697
	c-0.582-1.934-0.663-4.046-0.241-6.334c0.443-2.409,1.325-4.413,2.647-6.012c1.321-1.599,3.026-2.684,5.114-3.254
	c1.625-0.438,3.705-0.423,6.233,0.042c2.439,0.449,4.223,1.006,5.352,1.67c1.128,0.664,2.007,1.534,2.633,2.609
	c0.627,1.075,1.011,2.363,1.149,3.862l-6.796-0.037c-0.117-0.883-0.46-1.605-1.025-2.166c-0.565-0.561-1.352-0.934-2.355-1.118
	c-1.496-0.276-2.783,0.024-3.862,0.899c-1.08,0.875-1.826,2.438-2.24,4.686c-0.439,2.389-0.306,4.178,0.405,5.367
	c0.71,1.189,1.868,1.932,3.474,2.228c0.763,0.14,1.511,0.164,2.245,0.071c0.732-0.093,1.595-0.324,2.586-0.692l0.383-2.078
	L207.32,23.893z"/>
<path fill="#DD0741" d="M227.012,13.686l17.521,6.202l-1.6,4.517l-10.968-3.882l-1.191,3.362l10.175,3.602l-1.526,4.315
	L229.247,28.2l-1.477,4.171l11.287,3.995l-1.696,4.791l-17.838-6.313L227.012,13.686z"/>
<path fill="#DD0741" d="M249.18,21.845l18.631,9.863l-2.593,4.898l-6.253-3.31l-7.907,14.938l-6.129-3.245l7.909-14.938
	l-6.252-3.309L249.18,21.845z"/>
<path fill="#DD0741" d="M272.778,34.839l5.548,4.164l-4.715,6.281l6.061,4.549l4.715-6.282l5.571,4.181l-13.472,17.951l-5.571-4.181
	l5.449-7.261l-6.062-4.55l-5.448,7.261l-5.547-4.163L272.778,34.839z"/>
<path fill="#DD0741" d="M295.35,52.659l12.948,13.334l-3.438,3.338l-8.104-8.348l-2.56,2.485l7.519,7.744L298.43,74.4l-7.519-7.743
	l-3.174,3.083l8.34,8.588l-3.646,3.542l-13.183-13.576L295.35,52.659z"/>
<path fill="#DD0741" d="M294.379,84.214l18.267-13.04l6.716,9.408c1.246,1.745,2.048,3.185,2.407,4.321
	c0.359,1.135,0.336,2.274-0.071,3.418c-0.407,1.143-1.192,2.129-2.354,2.959c-1.014,0.724-2.043,1.132-3.086,1.225
	c-1.045,0.092-2.064-0.077-3.061-0.506c-0.636-0.275-1.348-0.764-2.139-1.467c0.255,0.833,0.381,1.483,0.376,1.95
	c-0.001,0.315-0.107,0.844-0.316,1.588c-0.209,0.745-0.399,1.279-0.57,1.602l-3.341,6.511l-4.554-6.378l3.429-7.002
	c0.449-0.898,0.676-1.573,0.679-2.027c-0.009-0.608-0.196-1.17-0.563-1.685l-0.357-0.499l-7.412,5.292L294.379,84.214z
	 M309.292,82.127l1.698,2.38c0.184,0.258,0.623,0.697,1.316,1.317c0.342,0.321,0.752,0.489,1.228,0.507
	c0.477,0.018,0.914-0.116,1.312-0.4c0.59-0.421,0.909-0.932,0.959-1.531c0.048-0.599-0.296-1.414-1.03-2.444l-1.771-2.479
	L309.292,82.127z"/>
<path fill="#DD0741" d="M153.947,348.199l-18.337-3.707c0.576-1.769,1.559-3.342,2.946-4.724c1.388-1.381,3.767-2.86,7.137-4.437
	c2.06-0.97,3.409-1.748,4.049-2.337c0.64-0.589,1.022-1.194,1.148-1.814c0.135-0.67,0.003-1.294-0.396-1.868
	c-0.399-0.576-0.974-0.94-1.724-1.091c-0.78-0.158-1.467-0.041-2.062,0.348c-0.595,0.39-1.102,1.188-1.523,2.396l-6.022-1.733
	c0.588-1.673,1.299-2.926,2.135-3.763c0.835-0.836,1.888-1.394,3.158-1.673c1.269-0.279,2.935-0.212,4.996,0.206
	c2.151,0.435,3.774,1.018,4.871,1.75c1.096,0.732,1.884,1.675,2.364,2.828c0.48,1.154,0.593,2.361,0.338,3.621
	c-0.271,1.342-0.923,2.542-1.955,3.605c-1.032,1.062-2.731,2.112-5.098,3.153c-1.402,0.603-2.346,1.031-2.83,1.288
	c-0.484,0.256-1.062,0.603-1.733,1.04l9.544,1.929L153.947,348.199z"/>
<path fill="#DD0741" d="M159.166,337.509c0.281-4.257,1.243-7.185,2.888-8.785c1.645-1.599,4.036-2.296,7.172-2.088
	c1.507,0.097,2.732,0.365,3.675,0.8c0.943,0.437,1.7,0.972,2.272,1.608c0.572,0.635,1.011,1.294,1.32,1.973
	c0.308,0.681,0.54,1.467,0.696,2.355c0.307,1.698,0.402,3.454,0.282,5.267c-0.268,4.062-1.151,6.992-2.65,8.786
	c-1.499,1.792-3.929,2.578-7.289,2.357c-1.884-0.123-3.387-0.524-4.508-1.202c-1.122-0.677-2.016-1.621-2.683-2.831
	c-0.485-0.859-0.831-2.016-1.037-3.467C159.097,340.832,159.052,339.24,159.166,337.509z M165.337,337.932
	c-0.188,2.851-0.064,4.815,0.371,5.893c0.435,1.078,1.131,1.646,2.089,1.711c0.631,0.04,1.193-0.146,1.686-0.558
	s0.88-1.089,1.162-2.031c0.282-0.944,0.49-2.43,0.624-4.455c0.195-2.974,0.075-4.99-0.362-6.047
	c-0.437-1.056-1.159-1.617-2.167-1.684c-1.029-0.068-1.807,0.405-2.334,1.419C165.879,333.193,165.522,335.11,165.337,337.932z"/>
<path fill="#DD0741" d="M193.711,326.297l1.502,22.776l-6.295,0.414l-0.983-14.925c-0.968,0.841-1.912,1.533-2.833,2.074
	c-0.921,0.542-2.084,1.08-3.491,1.611l-0.337-5.103c2.074-0.82,3.665-1.75,4.772-2.784s1.947-2.276,2.517-3.726L193.711,326.297z"/>
<path fill="#DD0741" d="M201.825,325.715l14.511-2.935l0.986,4.876l-9.829,1.989l0.143,3.406c0.616-0.456,1.24-0.834,1.873-1.128
	c0.633-0.295,1.273-0.508,1.925-0.639c2.2-0.445,4.12-0.142,5.76,0.911c1.641,1.055,2.664,2.591,3.073,4.611
	c0.287,1.42,0.211,2.857-0.229,4.312c-0.44,1.453-1.238,2.655-2.395,3.608c-1.155,0.951-2.743,1.632-4.764,2.04
	c-1.45,0.295-2.723,0.409-3.813,0.343s-2.054-0.298-2.89-0.697c-0.835-0.397-1.549-0.896-2.138-1.496s-1.14-1.384-1.648-2.354
	l6.047-1.925c0.35,0.959,0.853,1.642,1.507,2.046c0.655,0.403,1.361,0.528,2.123,0.374c0.849-0.172,1.486-0.637,1.911-1.394
	c0.426-0.758,0.509-1.777,0.249-3.058c-0.265-1.311-0.739-2.214-1.423-2.711c-0.685-0.497-1.491-0.651-2.421-0.464
	c-0.59,0.12-1.132,0.381-1.622,0.782c-0.369,0.293-0.742,0.764-1.12,1.413l-5.36,0.304L201.825,325.715z"/>
</svg>
